# xmcd
#
# Track frame offsets: 
#        150
#        11002
#        25065
#        35302
#        45312
#        57467
#        68025
#        81492
#        93952
#        105525
#        118022
#        128472
#        142007
#        154570
#        168257
#        179682
#        190507
#        202027
#        212717
#        222680
#        233455
#        246480
#        258622
#        269862
#        282247
#        293675
#        304345
#        316990
#        327087
#        339402
#
# Disc length: 4681 seconds
#
# Revision: 10
# Processed by: cddbd v1.5.2PL0 Copyright (c) Steve Scherf et al.
# Submitted via: ExactAudioCopy v0.99pb4
#
DISCID=be12471e
DTITLE=Dean Martin - Dino The Essential Dean Martin
DYEAR=2004
DGENRE=Jazz
TTITLE0=Ain't That A Kick In The Head
TTITLE1=That's Amore
TTITLE2=Memories Are Made Of This
TTITLE3=Just In Time
TTITLE4=Sway
TTITLE5=I'D Cry Like A Baby
TTITLE6=Volare (Nel, Blu, Di Pinto Di Blu)
TTITLE7=Under The Bridges Of Paris
TTITLE8=Love Me, Love Me
TTITLE9=If
TTITLE10=Mambo Italiano
TTITLE11=Let Me Go Lover
TTITLE12=Standing On The Corner
TTITLE13=You Belong To Me
TTITLE14=Power Your Face With Sunshine (Smile! Smile! Smile!)
TTITLE15=Innamorata (Sweetheart)
TTITLE16=I'll Always Love You (Day After Day)
TTITLE17=Kiss
TTITLE18=You're Nobody 'Til Somebody Loves You
TTITLE19=Return To Me (Ritorna-Me)
TTITLE20=The Door Is Still Open (To My Heart)
TTITLE21=Houston
TTITLE22=Send Me The Pillow You Dream On
TTITLE23=Everybody Loves Somebody
TTITLE24=In The Chapel In The Moonlight
TTITLE25=I Will
TTITLE26=Little Old Wine Drinker, Me
TTITLE27=Somewhere There's A Someone
TTITLE28=In The Misty Moonlight
TTITLE29=Gentle On My Mind
EXTD=YEAR: 2004
EXTT0=
EXTT1=
EXTT2=
EXTT3=
EXTT4=
EXTT5=
EXTT6=
EXTT7=
EXTT8=
EXTT9=
EXTT10=
EXTT11=
EXTT12=
EXTT13=
EXTT14=
EXTT15=
EXTT16=
EXTT17=
EXTT18=
EXTT19=
EXTT20=
EXTT21=
EXTT22=
EXTT23=
EXTT24=
EXTT25=
EXTT26=
EXTT27=
EXTT28=
EXTT29=
PLAYORDER=
